<svg xmlns="http://www.w3.org/2000/svg" viewBox="0 0 1440 900" width="100%" height="100%">
  <defs>
    <linearGradient id="bgGrad3" x1="0%" y1="0%" x2="100%" y2="100%">
      <stop offset="0%" stop-color="#0a0c10" />
      <stop offset="100%" stop-color="#10141d" />
    </linearGradient>
    <linearGradient id="termGrad3" x1="0%" y1="0%" x2="0%" y2="100%">
      <stop offset="0%" stop-color="#141822" />
      <stop offset="100%" stop-color="#0e1117" />
    </linearGradient>
    <linearGradient id="purpleNeon" x1="0%" y1="0%" x2="100%" y2="100%">
      <stop offset="0%" stop-color="#7928ca" stop-opacity="0" />
      <stop offset="60%" stop-color="#ff0080" stop-opacity="0.4" />
      <stop offset="100%" stop-color="#7928ca" stop-opacity="1" />
    </linearGradient>
    <filter id="glow3" x="-20%" y="-20%" width="140%" height="140%">
      <feGaussianBlur stdDeviation="5" result="blur" />
      <feComposite in="SourceGraphic" in2="blur" operator="over" />
    </filter>
  </defs>

  <rect width="1440" height="900" fill="url(#bgGrad3)" />

  <rect x="0" y="0" width="1440" height="52" fill="#11151e" stroke="#1f2635" stroke-width="1" />
  
  <rect x="14" y="10" width="34" height="32" rx="6" fill="#1b222d" stroke="#2d3748" stroke-width="1" />
  <text x="23" y="31" fill="#58a6ff" font-family="sans-serif" font-size="16">☰</text>

  <rect x="58" y="10" width="125" height="32" rx="6" fill="#1f293d" stroke="#58a6ff" stroke-width="1" />
  <text x="70" y="30" fill="#58a6ff" font-family="monospace" font-size="11" font-weight="bold">+ NEW TERMINAL</text>

  <rect x="195" y="10" width="220" height="32" rx="6" fill="#0d1117" stroke="#222834" stroke-width="1" />
  <text x="208" y="30" fill="#8b949e" font-family="sans-serif" font-size="11">Cols/Row: </text>
  <rect x="270" y="14" width="26" height="24" rx="4" fill="#58a6ff" />
  <text x="279" y="30" fill="#0d1117" font-family="monospace" font-size="11" font-weight="bold">1</text>
  <rect x="300" y="14" width="26" height="24" rx="4" fill="#1f2633" />
  <text x="309" y="30" fill="#8b949e" font-family="monospace" font-size="11">2</text>
  <rect x="330" y="14" width="26" height="24" rx="4" fill="#1f2633" />
  <text x="339" y="30" fill="#8b949e" font-family="monospace" font-size="11">3</text>
  <rect x="360" y="14" width="26" height="24" rx="4" fill="#1f2633" />
  <text x="369" y="30" fill="#8b949e" font-family="monospace" font-size="11">4</text>

  <rect x="428" y="10" width="240" height="32" rx="6" fill="#0d1117" stroke="#222834" stroke-width="1" />
  <text x="440" y="30" fill="#8b949e" font-family="sans-serif" font-size="11">Sort: [Most Recently Started ▼]</text>

  <g transform="translate(1330, 10)">
    <rect x="0" y="0" width="30" height="30" rx="4" fill="#161c24" />
    <text x="11" y="20" fill="#8b949e" font-family="monospace" font-size="14">_</text>
    <rect x="36" y="0" width="30" height="30" rx="4" fill="#161c24" />
    <text x="46" y="20" fill="#8b949e" font-family="monospace" font-size="13">□</text>
    <rect x="72" y="0" width="30" height="30" rx="4" fill="#2d1519" />
    <text x="82" y="20" fill="#f85149" font-family="monospace" font-size="13">✕</text>
  </g>

  <rect x="0" y="52" width="280" height="800" fill="#0c0e14" stroke="#1c222d" stroke-width="1" />
  <text x="16" y="80" fill="#8b949e" font-family="sans-serif" font-size="11" font-weight="bold">SESSIONS (1-Col View) [2x: Top]</text>

  <rect x="12" y="96" width="256" height="60" rx="6" fill="#141c26" stroke="#238636" stroke-width="1.5" />
  <circle cx="26" cy="120" r="4" fill="#3fb950" />
  <text x="36" y="118" fill="#f0f6fc" font-family="monospace" font-size="11" font-weight="bold">#1: helm-k8s-deploy</text>
  <text x="36" y="136" fill="#8b949e" font-family="monospace" font-size="10">$ helm upgrade --install</text>
  <text x="250" y="122" fill="#f85149" font-family="sans-serif" font-size="11">✕</text>

  <rect x="12" y="164" width="256" height="60" rx="6" fill="#12161f" stroke="#262f3f" stroke-width="1" />
  <circle cx="26" cy="188" r="4" fill="#d29922" />
  <text x="36" y="186" fill="#c9d1d9" font-family="monospace" font-size="11">#2: npm-test-suite</text>
  <text x="36" y="204" fill="#8b949e" font-family="monospace" font-size="10">Done (exit 0)</text>
  <text x="250" y="190" fill="#8b949e" font-family="sans-serif" font-size="11">✕</text>

  <g transform="translate(295, 66)">
    <rect width="1120" height="430" rx="10" fill="url(#termGrad3)" stroke="#238636" stroke-width="2" />
    <rect width="1120" height="34" rx="10" fill="#151b24" />
    <circle cx="18" cy="17" r="4" fill="#3fb950" />
    <text x="28" y="21" fill="#f0f6fc" font-family="monospace" font-size="11" font-weight="bold">helm-k8s-deploy</text>
    
    <rect x="860" y="7" width="125" height="20" rx="10" fill="#14261d" stroke="#238636" stroke-width="1" />
    <circle cx="874" cy="17" r="3" fill="#3fb950" />
    <text x="884" y="21" fill="#3fb950" font-family="monospace" font-size="10" font-weight="bold">AGENT STREAMING</text>
    
    <g transform="translate(1020, 4)">
      <rect x="0" y="2" width="24" height="20" rx="3" fill="#1b222d" />
      <text x="8" y="16" fill="#8b949e" font-family="monospace" font-size="11">_</text>
      <rect x="28" y="2" width="24" height="20" rx="3" fill="#1b222d" />
      <text x="36" y="16" fill="#8b949e" font-family="monospace" font-size="10">□</text>
      <rect x="56" y="2" width="24" height="20" rx="3" fill="#2d1519" />
      <text x="64" y="16" fill="#f85149" font-family="monospace" font-size="10">✕</text>
    </g>

    <g transform="translate(20, 58)" font-family="monospace" font-size="13">
      <text y="0" fill="#3fb950">user@desktop:~/deploy$ <tspan fill="#f0f6fc">helm upgrade --install termcmd ./charts</tspan></text>
      <text y="24" fill="#8b949e">Release "termcmd" upgraded. Status: deployed (Revision 4)</text>
      <text y="48" fill="#79c0ff">&gt;&gt; Verifying rollout of deployment/termcmd-worker...</text>
      <text y="72" fill="#3fb950">Waiting for rollout to finish: 2 of 4 replicas ready...</text>

      <path d="M 50 120 Q 260 160 480 120" fill="none" stroke="url(#purpleNeon)" stroke-width="14" stroke-linecap="round" filter="url(#glow3)" />
      <rect x="475" y="110" width="10" height="20" fill="#ff0080" />
    </g>
  </g>

  <g transform="translate(295, 510)">
    <rect width="1120" height="280" rx="10" fill="url(#termGrad3)" stroke="#222834" stroke-width="1" opacity="0.85" />
    <rect width="1120" height="32" rx="10" fill="#151b24" />
    <text x="18" y="20" fill="#8b949e" font-family="monospace" font-size="11">npm-test-suite (exit: 0)</text>
    
    <g transform="translate(1020, 4)">
      <rect x="0" y="2" width="24" height="20" rx="3" fill="#1b222d" />
      <text x="8" y="16" fill="#8b949e" font-family="monospace" font-size="11">_</text>
      <rect x="28" y="2" width="24" height="20" rx="3" fill="#1b222d" />
      <text x="36" y="16" fill="#8b949e" font-family="monospace" font-size="10">□</text>
      <rect x="56" y="2" width="24" height="20" rx="3" fill="#2d1519" />
      <text x="64" y="16" fill="#f85149" font-family="monospace" font-size="10">✕</text>
    </g>

    <g transform="translate(20, 54)" font-family="monospace" font-size="12" opacity="0.8">
      <text y="0" fill="#8b949e">PASS src/__tests__/pty_manager.test.ts (14 passed)</text>
      <text y="24" fill="#3fb950">Test Suites: 2 passed, 2 total</text>
      <text y="48" fill="#8b949e">user@desktop:~/projects$ █</text>
    </g>
  </g>

  <rect x="1424" y="66" width="8" height="780" fill="#12161f" rx="4" />
  <rect x="1424" y="80" width="8" height="220" fill="#30363d" rx="4" />

  <rect x="0" y="852" width="1440" height="48" fill="#0d1017" stroke="#1f2532" stroke-width="1" />
  <text x="24" y="881" fill="#8b949e" font-family="monospace" font-size="11">MINIMIZED DOCK:</text>
  <rect x="150" y="860" width="160" height="32" rx="6" fill="#161c26" stroke="#2d3748" stroke-width="1" />
  <text x="165" y="880" fill="#8b949e" font-family="monospace" font-size="11">_ background-sync</text>
  <text x="1240" y="881" fill="#6e7681" font-family="monospace" font-size="11">Tiling Canvas (1 col) | Scrollable</text>
</svg>
